M48
; DRILL file {KiCad (5.1.8-0-10_14)} date Wednesday, January 06, 2021 at 06:12:38 PM
; FORMAT={2:4/ absolute / inch / suppress leading zeros}
; #@! TF.CreationDate,2021-01-06T18:12:38-05:00
; #@! TF.GenerationSoftware,Kicad,Pcbnew,(5.1.8-0-10_14)
; #@! TF.FileFunction,Plated,1,2,PTH
FMAT,2
INCH,TZ
T1C0.0157
T2C0.0236
T3C0.0315
T4C0.0320
T5C0.0394
T6C0.0433
T7C0.1200
%
G90
G05
T1
X32659Y-23172
X36673Y-32522
X37647Y-28014
X42484Y-22538
X44334Y-25290
X51115Y-30622
X52452Y-26106
X53042Y-25142
X53262Y-21410
X54232Y-17167
X57546Y-31687
X59345Y-21477
X59463Y-38787
X59781Y-18307
X60350Y-36054
X62500Y-33537
X64648Y-24791
X65419Y-23960
X65749Y-25207
X66764Y-42651
X67637Y-33238
X71317Y-39815
X71915Y-24235
X72041Y-38449
X72569Y-28092
T2
X20909Y-19000
X21500Y-19000
X24909Y-35750
X25500Y-35750
T3
X50750Y-29700
X50750Y-31669
X25500Y-23100
X25500Y-24100
X25500Y-25100
X25500Y-26100
X25500Y-27100
X25500Y-28100
X25500Y-29100
X25500Y-30100
X25500Y-31100
X25500Y-32100
X64150Y-35800
X64150Y-38800
X65150Y-35800
X65150Y-38800
X66150Y-35800
X66150Y-38800
X67150Y-35800
X67150Y-38800
X68150Y-35800
X68150Y-38800
X69150Y-35800
X69150Y-38800
X70150Y-35800
X70150Y-38800
X71150Y-35800
X71150Y-38800
X25500Y-39000
X25500Y-40000
X25500Y-41000
X25500Y-42000
X25500Y-43000
X25500Y-44000
X25500Y-45000
X25500Y-46000
X25500Y-47000
X25500Y-48000
X52500Y-24500
X52500Y-27500
X53500Y-24500
X53500Y-27500
X54500Y-24500
X54500Y-27500
X55500Y-24500
X55500Y-27500
X56500Y-24500
X56500Y-27500
X57500Y-24500
X57500Y-27500
X58500Y-24500
X58500Y-27500
X27500Y-21750
X27500Y-23719
X62150Y-26250
X62150Y-29250
X63150Y-26250
X63150Y-29250
X64150Y-26250
X64150Y-29250
X65150Y-26250
X65150Y-29250
X66150Y-26250
X66150Y-29250
X67150Y-26250
X67150Y-29250
X68150Y-26250
X68150Y-29250
X69150Y-26250
X69150Y-29250
X70150Y-26250
X70150Y-29250
X71150Y-26250
X71150Y-29250
X49500Y-40750
X49500Y-43750
X50500Y-40750
X50500Y-43750
X51500Y-40750
X51500Y-43750
X52500Y-40750
X52500Y-43750
X53500Y-40750
X53500Y-43750
X54500Y-40750
X54500Y-43750
X55500Y-40750
X55500Y-43750
X56500Y-40750
X56500Y-43750
X57500Y-40750
X57500Y-43750
X58500Y-40750
X58500Y-43750
X62250Y-41250
X62250Y-43219
X49500Y-38700
X50500Y-38700
X51500Y-38700
X52500Y-38700
X53500Y-38700
X54500Y-38700
X55500Y-38700
X56500Y-38700
X57500Y-38700
X58500Y-38700
X60500Y-26750
X60500Y-28719
X52500Y-29250
X52500Y-32250
X53500Y-29250
X53500Y-32250
X54500Y-29250
X54500Y-32250
X55500Y-29250
X55500Y-32250
X56500Y-29250
X56500Y-32250
X57500Y-29250
X57500Y-32250
X58500Y-29250
X58500Y-32250
X62150Y-21500
X62150Y-24500
X63150Y-21500
X63150Y-24500
X64150Y-21500
X64150Y-24500
X65150Y-21500
X65150Y-24500
X66150Y-21500
X66150Y-24500
X67150Y-21500
X67150Y-24500
X68150Y-21500
X68150Y-24500
X69150Y-21500
X69150Y-24500
X70150Y-21500
X70150Y-24500
X71150Y-21500
X71150Y-24500
X50750Y-25250
X50750Y-27219
X50750Y-20250
X50750Y-22219
X60500Y-17281
X60500Y-19250
X48000Y-41250
X48000Y-43219
X23000Y-38000
X23000Y-39000
X23000Y-40000
X23000Y-41000
X23000Y-42000
X23000Y-43000
X23000Y-44000
X23000Y-45000
X23000Y-46000
X23000Y-47000
X62150Y-16750
X62150Y-19750
X63150Y-16750
X63150Y-19750
X64150Y-16750
X64150Y-19750
X65150Y-16750
X65150Y-19750
X66150Y-16750
X66150Y-19750
X67150Y-16750
X67150Y-19750
X68150Y-16750
X68150Y-19750
X69150Y-16750
X69150Y-19750
X70150Y-16750
X70150Y-19750
X71150Y-16750
X71150Y-19750
X52500Y-45900
X52500Y-48900
X53500Y-45900
X53500Y-48900
X54500Y-45900
X54500Y-48900
X55500Y-45900
X55500Y-48900
X56500Y-45900
X56500Y-48900
X57500Y-45900
X57500Y-48900
X58500Y-45900
X58500Y-48900
X28750Y-19750
X28750Y-25750
X29750Y-19750
X29750Y-25750
X30750Y-19750
X30750Y-25750
X31750Y-19750
X31750Y-25750
X32750Y-19750
X32750Y-25750
X33750Y-19750
X33750Y-25750
X34750Y-19750
X34750Y-25750
X35750Y-19750
X35750Y-25750
X36750Y-19750
X36750Y-25750
X37750Y-19750
X37750Y-25750
X38750Y-19750
X38750Y-25750
X39750Y-19750
X39750Y-25750
X40750Y-19750
X40750Y-25750
X41750Y-19750
X41750Y-25750
X42750Y-19750
X42750Y-25750
X43750Y-19750
X43750Y-25750
X44750Y-19750
X44750Y-25750
X45750Y-19750
X45750Y-25750
X46750Y-19750
X46750Y-25750
X47750Y-19750
X47750Y-25750
X64150Y-40800
X64150Y-43800
X65150Y-40800
X65150Y-43800
X66150Y-40800
X66150Y-43800
X67150Y-40800
X67150Y-43800
X68150Y-40800
X68150Y-43800
X69150Y-40800
X69150Y-43800
X70150Y-40800
X70150Y-43800
X71150Y-40800
X71150Y-43800
X23000Y-22100
X23000Y-23100
X23000Y-24100
X23000Y-25100
X23000Y-26100
X23000Y-27100
X23000Y-28100
X23000Y-29100
X23000Y-30100
X23000Y-31100
X52500Y-19750
X52500Y-22750
X53500Y-19750
X53500Y-22750
X54500Y-19750
X54500Y-22750
X55500Y-19750
X55500Y-22750
X56500Y-19750
X56500Y-22750
X57500Y-19750
X57500Y-22750
X58500Y-19750
X58500Y-22750
X63266Y-51750
X64250Y-51750
X62250Y-36500
X62250Y-38469
X50900Y-46631
X50900Y-48600
X60500Y-22000
X60500Y-23969
T4
X74000Y-19250
X74000Y-20250
X74000Y-21250
X74000Y-22250
X74000Y-23250
X74000Y-24250
X74000Y-25250
X74000Y-26250
X74000Y-27250
X74000Y-28250
X74000Y-29250
X74000Y-30250
X74000Y-31250
X74000Y-32250
X74000Y-33250
X74000Y-34250
X74000Y-35250
X74000Y-36250
X74000Y-37250
X74000Y-38250
X74000Y-39250
X74000Y-40250
X74000Y-41250
X74000Y-42250
X74000Y-43250
X74000Y-44250
X74000Y-45250
X74000Y-46250
X74000Y-47250
X74000Y-48250
X74000Y-49250
X74000Y-50250
X75000Y-19250
X75000Y-20250
X75000Y-21250
X75000Y-22250
X75000Y-23250
X75000Y-24250
X75000Y-25250
X75000Y-26250
X75000Y-27250
X75000Y-28250
X75000Y-29250
X75000Y-30250
X75000Y-31250
X75000Y-32250
X75000Y-33250
X75000Y-34250
X75000Y-35250
X75000Y-36250
X75000Y-37250
X75000Y-38250
X75000Y-39250
X75000Y-40250
X75000Y-41250
X75000Y-42250
X75000Y-43250
X75000Y-44250
X75000Y-45250
X75000Y-46250
X75000Y-47250
X75000Y-48250
X75000Y-49250
X75000Y-50250
X76000Y-19250
X76000Y-20250
X76000Y-21250
X76000Y-22250
X76000Y-23250
X76000Y-24250
X76000Y-25250
X76000Y-26250
X76000Y-27250
X76000Y-28250
X76000Y-29250
X76000Y-30250
X76000Y-31250
X76000Y-32250
X76000Y-33250
X76000Y-34250
X76000Y-35250
X76000Y-36250
X76000Y-37250
X76000Y-38250
X76000Y-39250
X76000Y-40250
X76000Y-41250
X76000Y-42250
X76000Y-43250
X76000Y-44250
X76000Y-45250
X76000Y-46250
X76000Y-47250
X76000Y-48250
X76000Y-49250
X76000Y-50250
T5
X68150Y-49900
X69150Y-49900
X70150Y-49900
X64100Y-32600
X64100Y-33600
X65100Y-32600
X65100Y-33600
X66100Y-32600
X66100Y-33600
X67100Y-32600
X67100Y-33600
X68100Y-32600
X68100Y-33600
X69100Y-32600
X69100Y-33600
X70100Y-32600
X70100Y-33600
X71100Y-32600
X71100Y-33600
X50500Y-17200
X51500Y-17200
X52500Y-17200
X55500Y-17200
X56500Y-17200
X57500Y-17200
X19250Y-23000
X19250Y-24000
X19250Y-25000
X19250Y-26000
X19250Y-27000
X19250Y-28000
X19250Y-29000
X19250Y-30000
X19250Y-31000
X19250Y-32000
X19250Y-33000
X19250Y-34000
X19250Y-35000
X19250Y-36000
X19250Y-37000
X19250Y-38000
X19250Y-39000
X19250Y-40000
X19250Y-41000
X19250Y-42000
X19250Y-43000
X19250Y-44000
X19250Y-45000
X19250Y-46000
X19250Y-47000
X20250Y-23000
X20250Y-24000
X20250Y-25000
X20250Y-26000
X20250Y-27000
X20250Y-28000
X20250Y-29000
X20250Y-30000
X20250Y-31000
X20250Y-32000
X20250Y-33000
X20250Y-34000
X20250Y-35000
X20250Y-36000
X20250Y-37000
X20250Y-38000
X20250Y-39000
X20250Y-40000
X20250Y-41000
X20250Y-42000
X20250Y-43000
X20250Y-44000
X20250Y-45000
X20250Y-46000
X20250Y-47000
X20500Y-16500
X21500Y-16500
X51500Y-35700
X51500Y-36700
X52500Y-35700
X52500Y-36700
X53500Y-35700
X53500Y-36700
X54500Y-35700
X54500Y-36700
X55500Y-35700
X55500Y-36700
X56500Y-35700
X56500Y-36700
X57500Y-35700
X57500Y-36700
X58500Y-35700
X58500Y-36700
X62150Y-47050
X62150Y-48050
X63150Y-47050
X63150Y-48050
X64150Y-47050
X64150Y-48050
X65150Y-47050
X65150Y-48050
X66150Y-47050
X66150Y-48050
X67150Y-47050
X67150Y-48050
X68150Y-47050
X68150Y-48050
X69150Y-47050
X69150Y-48050
X70150Y-47050
X70150Y-48050
X71150Y-47050
X71150Y-48050
T6
X17500Y-16500
X17500Y-20500
T7
X77000Y-17250
X77000Y-52250
T0
M30
