G04 #@! TF.GenerationSoftware,KiCad,Pcbnew,(5.1.8-0-10_14)*
G04 #@! TF.CreationDate,2021-01-06T18:17:56-05:00*
G04 #@! TF.ProjectId,ECB SCSI-1.0-001,45434220-5343-4534-992d-312e302d3030,rev?*
G04 #@! TF.SameCoordinates,Original*
G04 #@! TF.FileFunction,Soldermask,Bot*
G04 #@! TF.FilePolarity,Negative*
%FSLAX46Y46*%
G04 Gerber Fmt 4.6, Leading zero omitted, Abs format (unit mm)*
G04 Created by KiCad (PCBNEW (5.1.8-0-10_14)) date 2021-01-06 18:17:56*
%MOMM*%
%LPD*%
G01*
G04 APERTURE LIST*
%ADD10C,1.200000*%
%ADD11R,1.200000X1.200000*%
%ADD12O,1.600000X1.600000*%
%ADD13R,1.600000X1.600000*%
%ADD14O,1.700000X1.700000*%
%ADD15R,1.700000X1.700000*%
%ADD16C,1.600000*%
%ADD17C,3.810000*%
%ADD18C,1.397000*%
%ADD19R,1.397000X1.397000*%
%ADD20O,2.200000X2.200000*%
%ADD21R,2.200000X2.200000*%
G04 APERTURE END LIST*
D10*
X53110000Y-48260000D03*
D11*
X54610000Y-48260000D03*
D10*
X64770000Y-90805000D03*
D11*
X63270000Y-90805000D03*
D12*
X133350000Y-116586000D03*
X148590000Y-124206000D03*
X135890000Y-116586000D03*
X146050000Y-124206000D03*
X138430000Y-116586000D03*
X143510000Y-124206000D03*
X140970000Y-116586000D03*
X140970000Y-124206000D03*
X143510000Y-116586000D03*
X138430000Y-124206000D03*
X146050000Y-116586000D03*
X135890000Y-124206000D03*
X148590000Y-116586000D03*
D13*
X133350000Y-124206000D03*
D12*
X133350000Y-74295000D03*
X148590000Y-81915000D03*
X135890000Y-74295000D03*
X146050000Y-81915000D03*
X138430000Y-74295000D03*
X143510000Y-81915000D03*
X140970000Y-74295000D03*
X140970000Y-81915000D03*
X143510000Y-74295000D03*
X138430000Y-81915000D03*
X146050000Y-74295000D03*
X135890000Y-81915000D03*
X148590000Y-74295000D03*
D13*
X133350000Y-81915000D03*
D14*
X146050000Y-43688000D03*
X143510000Y-43688000D03*
D15*
X140970000Y-43688000D03*
D16*
X129286000Y-118444000D03*
X129286000Y-123444000D03*
X69850000Y-60245000D03*
X69850000Y-55245000D03*
D14*
X48895000Y-58420000D03*
X51435000Y-58420000D03*
X48895000Y-60960000D03*
X51435000Y-60960000D03*
X48895000Y-63500000D03*
X51435000Y-63500000D03*
X48895000Y-66040000D03*
X51435000Y-66040000D03*
X48895000Y-68580000D03*
X51435000Y-68580000D03*
X48895000Y-71120000D03*
X51435000Y-71120000D03*
X48895000Y-73660000D03*
X51435000Y-73660000D03*
X48895000Y-76200000D03*
X51435000Y-76200000D03*
X48895000Y-78740000D03*
X51435000Y-78740000D03*
X48895000Y-81280000D03*
X51435000Y-81280000D03*
X48895000Y-83820000D03*
X51435000Y-83820000D03*
X48895000Y-86360000D03*
X51435000Y-86360000D03*
X48895000Y-88900000D03*
X51435000Y-88900000D03*
X48895000Y-91440000D03*
X51435000Y-91440000D03*
X48895000Y-93980000D03*
X51435000Y-93980000D03*
X48895000Y-96520000D03*
X51435000Y-96520000D03*
X48895000Y-99060000D03*
X51435000Y-99060000D03*
X48895000Y-101600000D03*
X51435000Y-101600000D03*
X48895000Y-104140000D03*
X51435000Y-104140000D03*
X48895000Y-106680000D03*
X51435000Y-106680000D03*
X48895000Y-109220000D03*
X51435000Y-109220000D03*
X48895000Y-111760000D03*
X51435000Y-111760000D03*
X48895000Y-114300000D03*
X51435000Y-114300000D03*
X48895000Y-116840000D03*
X51435000Y-116840000D03*
X48895000Y-119380000D03*
D15*
X51435000Y-119380000D03*
D12*
X73025000Y-50165000D03*
X121285000Y-65405000D03*
X75565000Y-50165000D03*
X118745000Y-65405000D03*
X78105000Y-50165000D03*
X116205000Y-65405000D03*
X80645000Y-50165000D03*
X113665000Y-65405000D03*
X83185000Y-50165000D03*
X111125000Y-65405000D03*
X85725000Y-50165000D03*
X108585000Y-65405000D03*
X88265000Y-50165000D03*
X106045000Y-65405000D03*
X90805000Y-50165000D03*
X103505000Y-65405000D03*
X93345000Y-50165000D03*
X100965000Y-65405000D03*
X95885000Y-50165000D03*
X98425000Y-65405000D03*
X98425000Y-50165000D03*
X95885000Y-65405000D03*
X100965000Y-50165000D03*
X93345000Y-65405000D03*
X103505000Y-50165000D03*
X90805000Y-65405000D03*
X106045000Y-50165000D03*
X88265000Y-65405000D03*
X108585000Y-50165000D03*
X85725000Y-65405000D03*
X111125000Y-50165000D03*
X83185000Y-65405000D03*
X113665000Y-50165000D03*
X80645000Y-65405000D03*
X116205000Y-50165000D03*
X78105000Y-65405000D03*
X118745000Y-50165000D03*
X75565000Y-65405000D03*
X121285000Y-50165000D03*
D13*
X73025000Y-65405000D03*
D12*
X125730000Y-103505000D03*
X148590000Y-111125000D03*
X128270000Y-103505000D03*
X146050000Y-111125000D03*
X130810000Y-103505000D03*
X143510000Y-111125000D03*
X133350000Y-103505000D03*
X140970000Y-111125000D03*
X135890000Y-103505000D03*
X138430000Y-111125000D03*
X138430000Y-103505000D03*
X135890000Y-111125000D03*
X140970000Y-103505000D03*
X133350000Y-111125000D03*
X143510000Y-103505000D03*
X130810000Y-111125000D03*
X146050000Y-103505000D03*
X128270000Y-111125000D03*
X148590000Y-103505000D03*
D13*
X125730000Y-111125000D03*
D12*
X133350000Y-50165000D03*
X148590000Y-57785000D03*
X135890000Y-50165000D03*
X146050000Y-57785000D03*
X138430000Y-50165000D03*
X143510000Y-57785000D03*
X140970000Y-50165000D03*
X140970000Y-57785000D03*
X143510000Y-50165000D03*
X138430000Y-57785000D03*
X146050000Y-50165000D03*
X135890000Y-57785000D03*
X148590000Y-50165000D03*
D13*
X133350000Y-57785000D03*
D12*
X133350000Y-62230000D03*
X148590000Y-69850000D03*
X135890000Y-62230000D03*
X146050000Y-69850000D03*
X138430000Y-62230000D03*
X143510000Y-69850000D03*
X140970000Y-62230000D03*
X140970000Y-69850000D03*
X143510000Y-62230000D03*
X138430000Y-69850000D03*
X146050000Y-62230000D03*
X135890000Y-69850000D03*
X148590000Y-62230000D03*
D13*
X133350000Y-69850000D03*
D12*
X162941000Y-103632000D03*
X180721000Y-111252000D03*
X165481000Y-103632000D03*
X178181000Y-111252000D03*
X168021000Y-103632000D03*
X175641000Y-111252000D03*
X170561000Y-103632000D03*
X173101000Y-111252000D03*
X173101000Y-103632000D03*
X170561000Y-111252000D03*
X175641000Y-103632000D03*
X168021000Y-111252000D03*
X178181000Y-103632000D03*
X165481000Y-111252000D03*
X180721000Y-103632000D03*
D13*
X162941000Y-111252000D03*
D12*
X157861000Y-42545000D03*
X180721000Y-50165000D03*
X160401000Y-42545000D03*
X178181000Y-50165000D03*
X162941000Y-42545000D03*
X175641000Y-50165000D03*
X165481000Y-42545000D03*
X173101000Y-50165000D03*
X168021000Y-42545000D03*
X170561000Y-50165000D03*
X170561000Y-42545000D03*
X168021000Y-50165000D03*
X173101000Y-42545000D03*
X165481000Y-50165000D03*
X175641000Y-42545000D03*
X162941000Y-50165000D03*
X178181000Y-42545000D03*
X160401000Y-50165000D03*
X180721000Y-42545000D03*
D13*
X157861000Y-50165000D03*
D12*
X162941000Y-90932000D03*
X180721000Y-98552000D03*
X165481000Y-90932000D03*
X178181000Y-98552000D03*
X168021000Y-90932000D03*
X175641000Y-98552000D03*
X170561000Y-90932000D03*
X173101000Y-98552000D03*
X173101000Y-90932000D03*
X170561000Y-98552000D03*
X175641000Y-90932000D03*
X168021000Y-98552000D03*
X178181000Y-90932000D03*
X165481000Y-98552000D03*
X180721000Y-90932000D03*
D13*
X162941000Y-98552000D03*
D12*
X157861000Y-54610000D03*
X180721000Y-62230000D03*
X160401000Y-54610000D03*
X178181000Y-62230000D03*
X162941000Y-54610000D03*
X175641000Y-62230000D03*
X165481000Y-54610000D03*
X173101000Y-62230000D03*
X168021000Y-54610000D03*
X170561000Y-62230000D03*
X170561000Y-54610000D03*
X168021000Y-62230000D03*
X173101000Y-54610000D03*
X165481000Y-62230000D03*
X175641000Y-54610000D03*
X162941000Y-62230000D03*
X178181000Y-54610000D03*
X160401000Y-62230000D03*
X180721000Y-54610000D03*
D13*
X157861000Y-62230000D03*
D12*
X157861000Y-66675000D03*
X180721000Y-74295000D03*
X160401000Y-66675000D03*
X178181000Y-74295000D03*
X162941000Y-66675000D03*
X175641000Y-74295000D03*
X165481000Y-66675000D03*
X173101000Y-74295000D03*
X168021000Y-66675000D03*
X170561000Y-74295000D03*
X170561000Y-66675000D03*
X168021000Y-74295000D03*
X173101000Y-66675000D03*
X165481000Y-74295000D03*
X175641000Y-66675000D03*
X162941000Y-74295000D03*
X178181000Y-66675000D03*
X160401000Y-74295000D03*
X180721000Y-66675000D03*
D13*
X157861000Y-74295000D03*
D12*
X64770000Y-99060000D03*
X64770000Y-101600000D03*
X64770000Y-104140000D03*
X64770000Y-106680000D03*
X64770000Y-109220000D03*
X64770000Y-111760000D03*
X64770000Y-114300000D03*
X64770000Y-116840000D03*
X64770000Y-119380000D03*
D13*
X64770000Y-121920000D03*
D12*
X58420000Y-119380000D03*
X58420000Y-116840000D03*
X58420000Y-114300000D03*
X58420000Y-111760000D03*
X58420000Y-109220000D03*
X58420000Y-106680000D03*
X58420000Y-104140000D03*
X58420000Y-101600000D03*
X58420000Y-99060000D03*
D13*
X58420000Y-96520000D03*
D12*
X58420000Y-78994000D03*
X58420000Y-76454000D03*
X58420000Y-73914000D03*
X58420000Y-71374000D03*
X58420000Y-68834000D03*
X58420000Y-66294000D03*
X58420000Y-63754000D03*
X58420000Y-61214000D03*
X58420000Y-58674000D03*
D13*
X58420000Y-56134000D03*
D12*
X64770000Y-58674000D03*
X64770000Y-61214000D03*
X64770000Y-63754000D03*
X64770000Y-66294000D03*
X64770000Y-68834000D03*
X64770000Y-71374000D03*
X64770000Y-73914000D03*
X64770000Y-76454000D03*
X64770000Y-78994000D03*
D13*
X64770000Y-81534000D03*
D12*
X148590000Y-98298000D03*
X146050000Y-98298000D03*
X143510000Y-98298000D03*
X140970000Y-98298000D03*
X138430000Y-98298000D03*
X135890000Y-98298000D03*
X133350000Y-98298000D03*
X130810000Y-98298000D03*
X128270000Y-98298000D03*
D13*
X125730000Y-98298000D03*
D14*
X180594000Y-82804000D03*
X180594000Y-85344000D03*
X178054000Y-82804000D03*
X178054000Y-85344000D03*
X175514000Y-82804000D03*
X175514000Y-85344000D03*
X172974000Y-82804000D03*
X172974000Y-85344000D03*
X170434000Y-82804000D03*
X170434000Y-85344000D03*
X167894000Y-82804000D03*
X167894000Y-85344000D03*
X165354000Y-82804000D03*
X165354000Y-85344000D03*
X162814000Y-82804000D03*
D15*
X162814000Y-85344000D03*
D14*
X180721000Y-119507000D03*
X180721000Y-122047000D03*
X178181000Y-119507000D03*
X178181000Y-122047000D03*
X175641000Y-119507000D03*
X175641000Y-122047000D03*
X173101000Y-119507000D03*
X173101000Y-122047000D03*
X170561000Y-119507000D03*
X170561000Y-122047000D03*
X168021000Y-119507000D03*
X168021000Y-122047000D03*
X165481000Y-119507000D03*
X165481000Y-122047000D03*
X162941000Y-119507000D03*
X162941000Y-122047000D03*
X160401000Y-119507000D03*
X160401000Y-122047000D03*
X157861000Y-119507000D03*
D15*
X157861000Y-122047000D03*
D14*
X178181000Y-126746000D03*
X175641000Y-126746000D03*
D15*
X173101000Y-126746000D03*
D14*
X52070000Y-41910000D03*
D15*
X54610000Y-41910000D03*
D14*
X148590000Y-90678000D03*
X148590000Y-93218000D03*
X146050000Y-90678000D03*
X146050000Y-93218000D03*
X143510000Y-90678000D03*
X143510000Y-93218000D03*
X140970000Y-90678000D03*
X140970000Y-93218000D03*
X138430000Y-90678000D03*
X138430000Y-93218000D03*
X135890000Y-90678000D03*
X135890000Y-93218000D03*
X133350000Y-90678000D03*
X133350000Y-93218000D03*
X130810000Y-90678000D03*
D15*
X130810000Y-93218000D03*
D14*
X133350000Y-43688000D03*
X130810000Y-43688000D03*
D15*
X128270000Y-43688000D03*
D17*
X195580000Y-43815000D03*
X195580000Y-132715000D03*
D18*
X187960000Y-127635000D03*
X187960000Y-125095000D03*
X187960000Y-122555000D03*
X187960000Y-120015000D03*
X187960000Y-117475000D03*
X187960000Y-114935000D03*
X187960000Y-112395000D03*
X187960000Y-109855000D03*
X187960000Y-107315000D03*
X187960000Y-104775000D03*
X187960000Y-102235000D03*
X187960000Y-99695000D03*
X187960000Y-97155000D03*
X187960000Y-94615000D03*
X187960000Y-92075000D03*
X187960000Y-89535000D03*
X187960000Y-86995000D03*
X187960000Y-84455000D03*
X187960000Y-81915000D03*
X187960000Y-79375000D03*
X187960000Y-76835000D03*
X187960000Y-74295000D03*
X187960000Y-71755000D03*
X187960000Y-69215000D03*
X187960000Y-66675000D03*
X187960000Y-64135000D03*
X187960000Y-61595000D03*
X187960000Y-59055000D03*
X187960000Y-56515000D03*
X187960000Y-53975000D03*
X187960000Y-51435000D03*
X187960000Y-48895000D03*
X190500000Y-127635000D03*
X190500000Y-125095000D03*
X190500000Y-122555000D03*
X190500000Y-120015000D03*
X190500000Y-117475000D03*
X190500000Y-114935000D03*
X190500000Y-112395000D03*
X190500000Y-109855000D03*
X190500000Y-107315000D03*
X190500000Y-104775000D03*
X190500000Y-102235000D03*
X190500000Y-99695000D03*
X190500000Y-97155000D03*
X190500000Y-94615000D03*
X190500000Y-92075000D03*
X190500000Y-89535000D03*
X190500000Y-86995000D03*
X190500000Y-84455000D03*
X190500000Y-81915000D03*
X190500000Y-79375000D03*
X190500000Y-76835000D03*
X190500000Y-74295000D03*
X190500000Y-71755000D03*
X190500000Y-69215000D03*
X190500000Y-66675000D03*
X190500000Y-64135000D03*
X190500000Y-61595000D03*
X190500000Y-59055000D03*
X190500000Y-56515000D03*
X190500000Y-53975000D03*
X190500000Y-51435000D03*
X190500000Y-48895000D03*
X193040000Y-127635000D03*
X193040000Y-125095000D03*
X193040000Y-122555000D03*
X193040000Y-120015000D03*
X193040000Y-117475000D03*
X193040000Y-114935000D03*
X193040000Y-112395000D03*
X193040000Y-109855000D03*
X193040000Y-107315000D03*
X193040000Y-104775000D03*
X193040000Y-102235000D03*
X193040000Y-99695000D03*
X193040000Y-97155000D03*
X193040000Y-94615000D03*
X193040000Y-92075000D03*
X193040000Y-89535000D03*
X193040000Y-86995000D03*
X193040000Y-84455000D03*
X193040000Y-81915000D03*
X193040000Y-79375000D03*
X193040000Y-76835000D03*
X193040000Y-74295000D03*
X193040000Y-71755000D03*
X193040000Y-69215000D03*
X193040000Y-66675000D03*
X193040000Y-64135000D03*
X193040000Y-61595000D03*
X193040000Y-59055000D03*
X193040000Y-56515000D03*
X193040000Y-53975000D03*
X193040000Y-51435000D03*
D19*
X193040000Y-48895000D03*
D20*
X44450000Y-41910000D03*
D21*
X44450000Y-52070000D03*
D16*
X121920000Y-104775000D03*
X121920000Y-109775000D03*
X128905000Y-75438000D03*
X128905000Y-80438000D03*
X128905000Y-64135000D03*
X128905000Y-69135000D03*
X128905000Y-51435000D03*
X128905000Y-56435000D03*
X153670000Y-43895000D03*
X153670000Y-48895000D03*
X153670000Y-55880000D03*
X153670000Y-60880000D03*
X153670000Y-67945000D03*
X153670000Y-72945000D03*
X158115000Y-92710000D03*
X158115000Y-97710000D03*
X158115000Y-104775000D03*
X158115000Y-109775000D03*
X160695000Y-131445000D03*
D13*
X163195000Y-131445000D03*
M02*
